<svg xmlns="http://www.w3.org/2000/svg" xmlns:xlink="http://www.w3.org/1999/xlink" width="250" zoomAndPan="magnify" viewBox="0 0 187.5 187.499992" height="250" preserveAspectRatio="xMidYMid meet" version="1.0"><defs><g/><clipPath id="28862f92c9"><path d="M 0 0 L 187 0 L 187 187 L 0 187 Z M 0 0 " clip-rule="nonzero"/></clipPath></defs><g clip-path="url(#28862f92c9)"><path fill="#ffffff" d="M 0 0 L 187.5 0 L 187.5 195 L 0 195 Z M 0 0 " fill-opacity="1" fill-rule="nonzero"/><path fill="#ffffff" d="M 0 0 L 187.5 0 L 187.5 187.5 L 0 187.5 Z M 0 0 " fill-opacity="1" fill-rule="nonzero"/><path fill="#ffffff" d="M 0 0 L 187.5 0 L 187.5 187.5 L 0 187.5 Z M 0 0 " fill-opacity="1" fill-rule="nonzero"/></g><g fill="#000000" fill-opacity="1"><g transform="translate(39.840706, 50.9983)"><g><path d="M 0.828125 -11.484375 L 4.40625 -11.484375 C 5.476562 -11.484375 6.332031 -11.253906 6.96875 -10.796875 C 7.613281 -10.335938 7.9375 -9.59375 7.9375 -8.5625 C 7.9375 -7.40625 7.457031 -6.582031 6.5 -6.09375 C 8.132812 -5.8125 8.953125 -4.847656 8.953125 -3.203125 C 8.953125 -2.234375 8.617188 -1.457031 7.953125 -0.875 C 7.285156 -0.289062 6.363281 0 5.1875 0 L 0.828125 0 Z M 3.453125 -6.984375 L 3.65625 -6.984375 C 4.238281 -6.984375 4.675781 -7.082031 4.96875 -7.28125 C 5.257812 -7.488281 5.40625 -7.828125 5.40625 -8.296875 C 5.40625 -9.078125 4.820312 -9.46875 3.65625 -9.46875 L 3.453125 -9.46875 Z M 3.453125 -2.015625 L 4.28125 -2.015625 C 5.550781 -2.015625 6.1875 -2.441406 6.1875 -3.296875 C 6.1875 -3.804688 6.023438 -4.171875 5.703125 -4.390625 C 5.390625 -4.617188 4.914062 -4.734375 4.28125 -4.734375 L 3.453125 -4.734375 Z M 3.453125 -2.015625 "/></g></g></g><g fill="#000000" fill-opacity="1"><g transform="translate(48.415992, 50.9983)"><g><path d="M 0.828125 0 L 0.828125 -7.140625 L 3.296875 -7.140625 L 3.296875 -6.109375 L 3.328125 -6.109375 C 3.347656 -6.148438 3.378906 -6.195312 3.421875 -6.25 C 3.460938 -6.300781 3.550781 -6.394531 3.6875 -6.53125 C 3.820312 -6.675781 3.96875 -6.804688 4.125 -6.921875 C 4.289062 -7.035156 4.5 -7.132812 4.75 -7.21875 C 5 -7.300781 5.253906 -7.34375 5.515625 -7.34375 C 5.785156 -7.34375 6.050781 -7.304688 6.3125 -7.234375 C 6.570312 -7.160156 6.757812 -7.085938 6.875 -7.015625 L 7.078125 -6.90625 L 6.046875 -4.8125 C 5.734375 -5.070312 5.304688 -5.203125 4.765625 -5.203125 C 4.460938 -5.203125 4.203125 -5.132812 3.984375 -5 C 3.773438 -4.875 3.625 -4.71875 3.53125 -4.53125 C 3.445312 -4.351562 3.382812 -4.195312 3.34375 -4.0625 C 3.3125 -3.9375 3.296875 -3.835938 3.296875 -3.765625 L 3.296875 0 Z M 0.828125 0 "/></g></g></g><g fill="#000000" fill-opacity="1"><g transform="translate(54.652403, 50.9983)"><g><path d="M 2 -10.640625 C 2.25 -10.890625 2.550781 -11.015625 2.90625 -11.015625 C 3.257812 -11.015625 3.5625 -10.890625 3.8125 -10.640625 C 4.0625 -10.390625 4.1875 -10.085938 4.1875 -9.734375 C 4.1875 -9.378906 4.0625 -9.078125 3.8125 -8.828125 C 3.5625 -8.578125 3.257812 -8.453125 2.90625 -8.453125 C 2.550781 -8.453125 2.25 -8.578125 2 -8.828125 C 1.75 -9.078125 1.625 -9.378906 1.625 -9.734375 C 1.625 -10.085938 1.75 -10.390625 2 -10.640625 Z M 5.296875 -10.640625 C 5.554688 -10.890625 5.859375 -11.015625 6.203125 -11.015625 C 6.554688 -11.015625 6.859375 -10.890625 7.109375 -10.640625 C 7.359375 -10.390625 7.484375 -10.085938 7.484375 -9.734375 C 7.484375 -9.378906 7.359375 -9.078125 7.109375 -8.828125 C 6.859375 -8.578125 6.554688 -8.453125 6.203125 -8.453125 C 5.859375 -8.453125 5.554688 -8.578125 5.296875 -8.828125 C 5.046875 -9.078125 4.921875 -9.378906 4.921875 -9.734375 C 4.921875 -10.085938 5.046875 -10.390625 5.296875 -10.640625 Z M 0.703125 -7.140625 L 0.703125 -3.140625 C 0.703125 -1.953125 1.007812 -1.097656 1.625 -0.578125 C 2.238281 -0.0546875 3.21875 0.203125 4.5625 0.203125 C 5.90625 0.203125 6.882812 -0.0546875 7.5 -0.578125 C 8.125 -1.097656 8.4375 -1.953125 8.4375 -3.140625 L 8.4375 -7.140625 L 5.96875 -7.140625 L 5.96875 -3.75 C 5.96875 -3.039062 5.859375 -2.535156 5.640625 -2.234375 C 5.429688 -1.941406 5.070312 -1.796875 4.5625 -1.796875 C 4.050781 -1.796875 3.6875 -1.941406 3.46875 -2.234375 C 3.257812 -2.535156 3.15625 -3.039062 3.15625 -3.75 L 3.15625 -7.140625 Z M 0.703125 -7.140625 "/></g></g></g><g fill="#000000" fill-opacity="1"><g transform="translate(63.088472, 50.9983)"><g><path d="M 4.640625 -5.328125 C 4.171875 -5.328125 3.769531 -5.15625 3.4375 -4.8125 C 3.101562 -4.46875 2.9375 -4.054688 2.9375 -3.578125 C 2.9375 -3.085938 3.101562 -2.671875 3.4375 -2.328125 C 3.769531 -1.984375 4.171875 -1.8125 4.640625 -1.8125 C 4.859375 -1.8125 5.066406 -1.835938 5.265625 -1.890625 C 5.460938 -1.953125 5.609375 -2.007812 5.703125 -2.0625 L 5.828125 -2.140625 L 6.671875 -0.4375 C 6.609375 -0.382812 6.515625 -0.320312 6.390625 -0.25 C 6.273438 -0.1875 6.007812 -0.0976562 5.59375 0.015625 C 5.1875 0.140625 4.75 0.203125 4.28125 0.203125 C 3.226562 0.203125 2.300781 -0.160156 1.5 -0.890625 C 0.707031 -1.628906 0.3125 -2.515625 0.3125 -3.546875 C 0.3125 -4.585938 0.707031 -5.476562 1.5 -6.21875 C 2.300781 -6.96875 3.226562 -7.34375 4.28125 -7.34375 C 4.75 -7.34375 5.179688 -7.285156 5.578125 -7.171875 C 5.984375 -7.066406 6.269531 -6.957031 6.4375 -6.84375 L 6.671875 -6.6875 L 5.828125 -5 C 5.523438 -5.21875 5.128906 -5.328125 4.640625 -5.328125 Z M 4.640625 -5.328125 "/></g></g></g><g fill="#000000" fill-opacity="1"><g transform="translate(69.227425, 50.9983)"><g><path d="M 0.828125 0 L 0.828125 -11.96875 L 3.296875 -11.96875 L 3.296875 -6.390625 L 3.328125 -6.390625 C 3.960938 -7.023438 4.644531 -7.34375 5.375 -7.34375 C 5.726562 -7.34375 6.078125 -7.296875 6.421875 -7.203125 C 6.773438 -7.117188 7.109375 -6.976562 7.421875 -6.78125 C 7.742188 -6.582031 8.003906 -6.304688 8.203125 -5.953125 C 8.398438 -5.597656 8.5 -5.179688 8.5 -4.703125 L 8.5 0 L 6.046875 0 L 6.046875 -4.03125 C 6.046875 -4.40625 5.925781 -4.726562 5.6875 -5 C 5.445312 -5.28125 5.140625 -5.421875 4.765625 -5.421875 C 4.390625 -5.421875 4.050781 -5.273438 3.75 -4.984375 C 3.445312 -4.703125 3.296875 -4.382812 3.296875 -4.03125 L 3.296875 0 Z M 0.828125 0 "/></g></g></g><g fill="#000000" fill-opacity="1"><g transform="translate(77.733108, 50.9983)"><g><path d="M 0.828125 0 L 0.828125 -7.140625 L 3.296875 -7.140625 L 3.296875 -6.109375 L 3.328125 -6.109375 C 3.347656 -6.148438 3.378906 -6.195312 3.421875 -6.25 C 3.460938 -6.300781 3.550781 -6.394531 3.6875 -6.53125 C 3.820312 -6.675781 3.96875 -6.804688 4.125 -6.921875 C 4.289062 -7.035156 4.5 -7.132812 4.75 -7.21875 C 5 -7.300781 5.253906 -7.34375 5.515625 -7.34375 C 5.785156 -7.34375 6.050781 -7.304688 6.3125 -7.234375 C 6.570312 -7.160156 6.757812 -7.085938 6.875 -7.015625 L 7.078125 -6.90625 L 6.046875 -4.8125 C 5.734375 -5.070312 5.304688 -5.203125 4.765625 -5.203125 C 4.460938 -5.203125 4.203125 -5.132812 3.984375 -5 C 3.773438 -4.875 3.625 -4.71875 3.53125 -4.53125 C 3.445312 -4.351562 3.382812 -4.195312 3.34375 -4.0625 C 3.3125 -3.9375 3.296875 -3.835938 3.296875 -3.765625 L 3.296875 0 Z M 0.828125 0 "/></g></g></g><g fill="#000000" fill-opacity="1"><g transform="translate(83.969519, 50.9983)"><g><path d="M 8.0625 -3.234375 L 2.875 -3.234375 C 2.875 -2.734375 3.035156 -2.359375 3.359375 -2.109375 C 3.691406 -1.867188 4.046875 -1.75 4.421875 -1.75 C 4.828125 -1.75 5.144531 -1.800781 5.375 -1.90625 C 5.601562 -2.019531 5.867188 -2.234375 6.171875 -2.546875 L 7.953125 -1.65625 C 7.203125 -0.414062 5.96875 0.203125 4.25 0.203125 C 3.164062 0.203125 2.238281 -0.160156 1.46875 -0.890625 C 0.695312 -1.628906 0.3125 -2.519531 0.3125 -3.5625 C 0.3125 -4.601562 0.695312 -5.492188 1.46875 -6.234375 C 2.238281 -6.972656 3.164062 -7.34375 4.25 -7.34375 C 5.375 -7.34375 6.289062 -7.015625 7 -6.359375 C 7.71875 -5.710938 8.078125 -4.78125 8.078125 -3.5625 C 8.078125 -3.394531 8.070312 -3.285156 8.0625 -3.234375 Z M 2.953125 -4.59375 L 5.671875 -4.59375 C 5.609375 -4.96875 5.457031 -5.253906 5.21875 -5.453125 C 4.988281 -5.648438 4.6875 -5.75 4.3125 -5.75 C 3.90625 -5.75 3.582031 -5.640625 3.34375 -5.421875 C 3.101562 -5.210938 2.972656 -4.9375 2.953125 -4.59375 Z M 2.953125 -4.59375 "/></g></g></g><g fill="#000000" fill-opacity="1"><g transform="translate(91.66773, 50.9983)"><g><path d="M 4.640625 -5.328125 C 4.171875 -5.328125 3.769531 -5.15625 3.4375 -4.8125 C 3.101562 -4.46875 2.9375 -4.054688 2.9375 -3.578125 C 2.9375 -3.085938 3.101562 -2.671875 3.4375 -2.328125 C 3.769531 -1.984375 4.171875 -1.8125 4.640625 -1.8125 C 4.859375 -1.8125 5.066406 -1.835938 5.265625 -1.890625 C 5.460938 -1.953125 5.609375 -2.007812 5.703125 -2.0625 L 5.828125 -2.140625 L 6.671875 -0.4375 C 6.609375 -0.382812 6.515625 -0.320312 6.390625 -0.25 C 6.273438 -0.1875 6.007812 -0.0976562 5.59375 0.015625 C 5.1875 0.140625 4.75 0.203125 4.28125 0.203125 C 3.226562 0.203125 2.300781 -0.160156 1.5 -0.890625 C 0.707031 -1.628906 0.3125 -2.515625 0.3125 -3.546875 C 0.3125 -4.585938 0.707031 -5.476562 1.5 -6.21875 C 2.300781 -6.96875 3.226562 -7.34375 4.28125 -7.34375 C 4.75 -7.34375 5.179688 -7.285156 5.578125 -7.171875 C 5.984375 -7.066406 6.269531 -6.957031 6.4375 -6.84375 L 6.671875 -6.6875 L 5.828125 -5 C 5.523438 -5.21875 5.128906 -5.328125 4.640625 -5.328125 Z M 4.640625 -5.328125 "/></g></g></g><g fill="#000000" fill-opacity="1"><g transform="translate(97.806683, 50.9983)"><g><path d="M 0.828125 0 L 0.828125 -11.96875 L 3.296875 -11.96875 L 3.296875 -6.390625 L 3.328125 -6.390625 C 3.960938 -7.023438 4.644531 -7.34375 5.375 -7.34375 C 5.726562 -7.34375 6.078125 -7.296875 6.421875 -7.203125 C 6.773438 -7.117188 7.109375 -6.976562 7.421875 -6.78125 C 7.742188 -6.582031 8.003906 -6.304688 8.203125 -5.953125 C 8.398438 -5.597656 8.5 -5.179688 8.5 -4.703125 L 8.5 0 L 6.046875 0 L 6.046875 -4.03125 C 6.046875 -4.40625 5.925781 -4.726562 5.6875 -5 C 5.445312 -5.28125 5.140625 -5.421875 4.765625 -5.421875 C 4.390625 -5.421875 4.050781 -5.273438 3.75 -4.984375 C 3.445312 -4.703125 3.296875 -4.382812 3.296875 -4.03125 L 3.296875 0 Z M 0.828125 0 "/></g></g></g><g fill="#000000" fill-opacity="1"><g transform="translate(106.312366, 50.9983)"><g><path d="M 0.828125 0 L 0.828125 -7.140625 L 3.296875 -7.140625 L 3.296875 -6.390625 L 3.328125 -6.390625 C 3.960938 -7.023438 4.644531 -7.34375 5.375 -7.34375 C 5.726562 -7.34375 6.078125 -7.296875 6.421875 -7.203125 C 6.773438 -7.117188 7.109375 -6.976562 7.421875 -6.78125 C 7.742188 -6.582031 8.003906 -6.304688 8.203125 -5.953125 C 8.398438 -5.597656 8.5 -5.179688 8.5 -4.703125 L 8.5 0 L 6.046875 0 L 6.046875 -4.03125 C 6.046875 -4.40625 5.925781 -4.726562 5.6875 -5 C 5.445312 -5.28125 5.140625 -5.421875 4.765625 -5.421875 C 4.390625 -5.421875 4.050781 -5.273438 3.75 -4.984375 C 3.445312 -4.703125 3.296875 -4.382812 3.296875 -4.03125 L 3.296875 0 Z M 0.828125 0 "/></g></g></g><g fill="#000000" fill-opacity="1"><g transform="translate(114.818049, 50.9983)"><g><path d="M 3.15625 -7.140625 L 3.15625 -3.75 C 3.15625 -3.039062 3.257812 -2.535156 3.46875 -2.234375 C 3.6875 -1.941406 4.050781 -1.796875 4.5625 -1.796875 C 5.070312 -1.796875 5.429688 -1.941406 5.640625 -2.234375 C 5.859375 -2.535156 5.96875 -3.039062 5.96875 -3.75 L 5.96875 -7.140625 L 8.4375 -7.140625 L 8.4375 -3.140625 C 8.4375 -1.953125 8.125 -1.097656 7.5 -0.578125 C 6.882812 -0.0546875 5.90625 0.203125 4.5625 0.203125 C 3.21875 0.203125 2.238281 -0.0546875 1.625 -0.578125 C 1.007812 -1.097656 0.703125 -1.953125 0.703125 -3.140625 L 0.703125 -7.140625 Z M 3.15625 -7.140625 "/></g></g></g><g fill="#000000" fill-opacity="1"><g transform="translate(123.254118, 50.9983)"><g><path d="M 0.828125 0 L 0.828125 -7.140625 L 3.296875 -7.140625 L 3.296875 -6.390625 L 3.328125 -6.390625 C 3.960938 -7.023438 4.644531 -7.34375 5.375 -7.34375 C 5.726562 -7.34375 6.078125 -7.296875 6.421875 -7.203125 C 6.773438 -7.117188 7.109375 -6.976562 7.421875 -6.78125 C 7.742188 -6.582031 8.003906 -6.304688 8.203125 -5.953125 C 8.398438 -5.597656 8.5 -5.179688 8.5 -4.703125 L 8.5 0 L 6.046875 0 L 6.046875 -4.03125 C 6.046875 -4.40625 5.925781 -4.726562 5.6875 -5 C 5.445312 -5.28125 5.140625 -5.421875 4.765625 -5.421875 C 4.390625 -5.421875 4.050781 -5.273438 3.75 -4.984375 C 3.445312 -4.703125 3.296875 -4.382812 3.296875 -4.03125 L 3.296875 0 Z M 0.828125 0 "/></g></g></g><g fill="#000000" fill-opacity="1"><g transform="translate(131.7598, 50.9983)"><g><path d="M 0.515625 1.75 L 2.53125 0.765625 C 2.90625 1.378906 3.550781 1.6875 4.46875 1.6875 C 4.894531 1.6875 5.289062 1.546875 5.65625 1.265625 C 6.019531 0.992188 6.203125 0.578125 6.203125 0.015625 L 6.203125 -0.515625 C 5.773438 -0.0351562 5 0.203125 3.875 0.203125 C 2.84375 0.203125 1.988281 -0.160156 1.3125 -0.890625 C 0.644531 -1.617188 0.3125 -2.507812 0.3125 -3.5625 C 0.3125 -4.625 0.644531 -5.519531 1.3125 -6.25 C 1.988281 -6.976562 2.84375 -7.34375 3.875 -7.34375 C 4.789062 -7.34375 5.554688 -7.0625 6.171875 -6.5 L 6.203125 -6.5 L 6.203125 -7.140625 L 8.671875 -7.140625 L 8.671875 0.1875 C 8.671875 1.351562 8.285156 2.25 7.515625 2.875 C 6.742188 3.507812 5.726562 3.828125 4.46875 3.828125 C 2.425781 3.828125 1.109375 3.132812 0.515625 1.75 Z M 3.40625 -4.765625 C 3.09375 -4.453125 2.9375 -4.050781 2.9375 -3.5625 C 2.9375 -3.070312 3.085938 -2.671875 3.390625 -2.359375 C 3.703125 -2.046875 4.109375 -1.890625 4.609375 -1.890625 C 5.085938 -1.890625 5.484375 -2.046875 5.796875 -2.359375 C 6.109375 -2.679688 6.265625 -3.082031 6.265625 -3.5625 C 6.265625 -4.050781 6.101562 -4.453125 5.78125 -4.765625 C 5.457031 -5.085938 5.066406 -5.25 4.609375 -5.25 C 4.128906 -5.25 3.726562 -5.085938 3.40625 -4.765625 Z M 3.40625 -4.765625 "/></g></g></g><g fill="#000000" fill-opacity="1"><g transform="translate(41.446955, 94.869226)"><g><path d="M 0.171875 -1.625 L 1.65625 -2.34375 C 1.84375 -1.71875 2.320312 -1.40625 3.09375 -1.40625 C 3.4375 -1.40625 3.71875 -1.519531 3.9375 -1.75 C 4.15625 -1.976562 4.265625 -2.265625 4.265625 -2.609375 C 4.265625 -2.953125 4.15625 -3.234375 3.9375 -3.453125 C 3.726562 -3.671875 3.472656 -3.820312 3.171875 -3.90625 C 2.867188 -4 2.523438 -4.046875 2.140625 -4.046875 C 1.597656 -4.046875 1.132812 -3.957031 0.75 -3.78125 L 1.4375 -8.203125 L 5.609375 -8.203125 L 5.609375 -6.5625 L 3.03125 -6.5625 L 2.859375 -5.421875 C 2.867188 -5.421875 2.898438 -5.421875 2.953125 -5.421875 C 3.015625 -5.421875 3.054688 -5.421875 3.078125 -5.421875 C 3.492188 -5.421875 3.875 -5.375 4.21875 -5.28125 C 4.5625 -5.1875 4.882812 -5.035156 5.1875 -4.828125 C 5.488281 -4.628906 5.722656 -4.332031 5.890625 -3.9375 C 6.054688 -3.550781 6.140625 -3.085938 6.140625 -2.546875 C 6.140625 -1.765625 5.851562 -1.117188 5.28125 -0.609375 C 4.707031 -0.0976562 3.976562 0.15625 3.09375 0.15625 C 2.289062 0.15625 1.648438 -0.015625 1.171875 -0.359375 C 0.691406 -0.710938 0.359375 -1.132812 0.171875 -1.625 Z M 0.171875 -1.625 "/></g></g></g><g fill="#000000" fill-opacity="1"><g transform="translate(39.220393, 112.30514)"><g><path d="M 0.28125 -4.84375 L 0.28125 -6.6875 L 2.625 -8.203125 L 3.515625 -8.203125 L 3.515625 0 L 1.640625 0 L 1.640625 -5.71875 Z M 0.28125 -4.84375 "/></g></g></g><g fill="#000000" fill-opacity="1"><g transform="translate(42.823036, 112.30514)"><g><path d="M 0.28125 -4.09375 C 0.28125 -5.445312 0.597656 -6.492188 1.234375 -7.234375 C 1.878906 -7.972656 2.671875 -8.34375 3.609375 -8.34375 C 4.554688 -8.34375 5.347656 -7.972656 5.984375 -7.234375 C 6.628906 -6.492188 6.953125 -5.445312 6.953125 -4.09375 C 6.953125 -3.351562 6.859375 -2.707031 6.671875 -2.15625 C 6.492188 -1.601562 6.25 -1.160156 5.9375 -0.828125 C 5.625 -0.503906 5.269531 -0.257812 4.875 -0.09375 C 4.488281 0.0703125 4.066406 0.15625 3.609375 0.15625 C 3.160156 0.15625 2.738281 0.0703125 2.34375 -0.09375 C 1.957031 -0.257812 1.601562 -0.503906 1.28125 -0.828125 C 0.96875 -1.160156 0.722656 -1.601562 0.546875 -2.15625 C 0.367188 -2.707031 0.28125 -3.351562 0.28125 -4.09375 Z M 2.171875 -4.09375 C 2.171875 -3.226562 2.296875 -2.578125 2.546875 -2.140625 C 2.796875 -1.703125 3.15625 -1.484375 3.625 -1.484375 C 4.070312 -1.484375 4.421875 -1.703125 4.671875 -2.140625 C 4.929688 -2.578125 5.0625 -3.226562 5.0625 -4.09375 C 5.0625 -4.925781 4.929688 -5.566406 4.671875 -6.015625 C 4.421875 -6.472656 4.066406 -6.703125 3.609375 -6.703125 C 3.160156 -6.703125 2.804688 -6.472656 2.546875 -6.015625 C 2.296875 -5.554688 2.171875 -4.914062 2.171875 -4.09375 Z M 2.171875 -4.09375 "/></g></g></g><path stroke-linecap="butt" transform="matrix(0.741437, 0, 0, 0.75, 35.907459, 98.360996)" fill="none" stroke-linejoin="miter" d="M -0.0016312 1.997838 L 23.269264 1.997838 " stroke="#000000" stroke-width="4" stroke-opacity="1" stroke-miterlimit="4"/><g fill="#000000" fill-opacity="1"><g transform="translate(75.940276, 94.893031)"><g><path d="M 2.03125 -5.828125 L 0.5625 -6.546875 C 0.582031 -6.597656 0.601562 -6.660156 0.625 -6.734375 C 0.65625 -6.816406 0.734375 -6.960938 0.859375 -7.171875 C 0.992188 -7.378906 1.148438 -7.5625 1.328125 -7.71875 C 1.503906 -7.875 1.765625 -8.015625 2.109375 -8.140625 C 2.460938 -8.273438 2.851562 -8.34375 3.28125 -8.34375 C 4.0625 -8.34375 4.703125 -8.117188 5.203125 -7.671875 C 5.710938 -7.222656 5.96875 -6.65625 5.96875 -5.96875 C 5.96875 -5.3125 5.726562 -4.796875 5.25 -4.421875 C 5.945312 -3.992188 6.296875 -3.367188 6.296875 -2.546875 C 6.296875 -1.765625 6.007812 -1.117188 5.4375 -0.609375 C 4.863281 -0.0976562 4.132812 0.15625 3.25 0.15625 C 2.78125 0.15625 2.351562 0.0859375 1.96875 -0.046875 C 1.582031 -0.191406 1.28125 -0.363281 1.0625 -0.5625 C 0.851562 -0.757812 0.675781 -0.957031 0.53125 -1.15625 C 0.382812 -1.351562 0.285156 -1.519531 0.234375 -1.65625 L 0.171875 -1.875 L 1.890625 -2.71875 C 1.890625 -2.675781 1.894531 -2.628906 1.90625 -2.578125 C 1.914062 -2.523438 1.953125 -2.425781 2.015625 -2.28125 C 2.078125 -2.132812 2.148438 -2.003906 2.234375 -1.890625 C 2.316406 -1.785156 2.445312 -1.6875 2.625 -1.59375 C 2.800781 -1.5 3.003906 -1.453125 3.234375 -1.453125 C 3.585938 -1.453125 3.875 -1.546875 4.09375 -1.734375 C 4.3125 -1.929688 4.421875 -2.203125 4.421875 -2.546875 C 4.421875 -2.898438 4.304688 -3.1875 4.078125 -3.40625 C 3.847656 -3.632812 3.566406 -3.75 3.234375 -3.75 L 2.875 -3.6875 L 2.875 -4.90625 L 3.296875 -4.90625 C 3.546875 -4.90625 3.769531 -5.003906 3.96875 -5.203125 C 4.164062 -5.398438 4.265625 -5.644531 4.265625 -5.9375 C 4.265625 -6.195312 4.164062 -6.410156 3.96875 -6.578125 C 3.769531 -6.753906 3.535156 -6.84375 3.265625 -6.84375 C 3.066406 -6.84375 2.890625 -6.804688 2.734375 -6.734375 C 2.578125 -6.671875 2.457031 -6.585938 2.375 -6.484375 C 2.289062 -6.390625 2.222656 -6.289062 2.171875 -6.1875 C 2.117188 -6.09375 2.082031 -6.007812 2.0625 -5.9375 Z M 2.03125 -5.828125 "/></g></g></g><g fill="#000000" fill-opacity="1"><g transform="translate(75.506683, 112.328954)"><g><path d="M 3.609375 -6.765625 C 3.335938 -6.765625 3.082031 -6.632812 2.84375 -6.375 C 2.601562 -6.113281 2.425781 -5.851562 2.3125 -5.59375 L 2.140625 -5.203125 L 0.59375 -5.96875 C 0.601562 -6.03125 0.628906 -6.113281 0.671875 -6.21875 C 0.722656 -6.320312 0.832031 -6.507812 1 -6.78125 C 1.175781 -7.0625 1.367188 -7.304688 1.578125 -7.515625 C 1.785156 -7.722656 2.070312 -7.910156 2.4375 -8.078125 C 2.800781 -8.253906 3.191406 -8.34375 3.609375 -8.34375 C 4.140625 -8.34375 4.601562 -8.273438 5 -8.140625 C 5.40625 -8.003906 5.71875 -7.832031 5.9375 -7.625 C 6.15625 -7.425781 6.332031 -7.191406 6.46875 -6.921875 C 6.601562 -6.648438 6.6875 -6.398438 6.71875 -6.171875 C 6.757812 -5.941406 6.78125 -5.707031 6.78125 -5.46875 C 6.78125 -5.101562 6.679688 -4.722656 6.484375 -4.328125 C 6.285156 -3.941406 6.046875 -3.59375 5.765625 -3.28125 C 5.484375 -2.976562 5.195312 -2.695312 4.90625 -2.4375 C 4.625 -2.1875 4.382812 -1.988281 4.1875 -1.84375 L 3.890625 -1.640625 L 6.9375 -1.640625 L 6.9375 0 L 0.546875 0 L 0.546875 -0.46875 C 0.660156 -0.5625 0.8125 -0.6875 1 -0.84375 C 1.195312 -1.007812 1.535156 -1.320312 2.015625 -1.78125 C 2.503906 -2.238281 2.929688 -2.664062 3.296875 -3.0625 C 3.671875 -3.46875 4.007812 -3.894531 4.3125 -4.34375 C 4.613281 -4.800781 4.765625 -5.175781 4.765625 -5.46875 C 4.765625 -5.582031 4.753906 -5.691406 4.734375 -5.796875 C 4.710938 -5.910156 4.664062 -6.046875 4.59375 -6.203125 C 4.53125 -6.367188 4.410156 -6.503906 4.234375 -6.609375 C 4.066406 -6.710938 3.859375 -6.765625 3.609375 -6.765625 Z M 3.609375 -6.765625 "/></g></g></g><path stroke-linecap="butt" transform="matrix(0.741437, 0, 0, 0.75, 70.517966, 98.384811)" fill="none" stroke-linejoin="miter" d="M 0.00211092 2.002544 L 23.273006 2.002544 " stroke="#000000" stroke-width="4" stroke-opacity="1" stroke-miterlimit="4"/><g fill="#000000" fill-opacity="1"><g transform="translate(58.65129, 102.134811)"><g><path d="M 3.90625 -1.5625 L 2.390625 -1.5625 L 2.390625 -3.359375 L 0.59375 -3.359375 L 0.59375 -4.875 L 2.390625 -4.875 L 2.390625 -6.671875 L 3.90625 -6.671875 L 3.90625 -4.875 L 5.6875 -4.875 L 5.6875 -3.359375 L 3.90625 -3.359375 Z M 3.90625 -1.5625 "/></g></g></g><g fill="#000000" fill-opacity="1"><g transform="translate(97.266372, 102.110997)"><g><path d="M 0.59375 -6.078125 L 5.6875 -6.078125 L 5.6875 -4.546875 L 0.59375 -4.546875 Z M 0.59375 -3.6875 L 5.6875 -3.6875 L 5.6875 -2.171875 L 0.59375 -2.171875 Z M 0.59375 -3.6875 "/></g></g></g><g fill="#000000" fill-opacity="1"><g transform="translate(113.051788, 94.916852)"><g><path d="M 3.609375 -6.765625 C 3.335938 -6.765625 3.082031 -6.632812 2.84375 -6.375 C 2.601562 -6.113281 2.425781 -5.851562 2.3125 -5.59375 L 2.140625 -5.203125 L 0.59375 -5.96875 C 0.601562 -6.03125 0.628906 -6.113281 0.671875 -6.21875 C 0.722656 -6.320312 0.832031 -6.507812 1 -6.78125 C 1.175781 -7.0625 1.367188 -7.304688 1.578125 -7.515625 C 1.785156 -7.722656 2.070312 -7.910156 2.4375 -8.078125 C 2.800781 -8.253906 3.191406 -8.34375 3.609375 -8.34375 C 4.140625 -8.34375 4.601562 -8.273438 5 -8.140625 C 5.40625 -8.003906 5.71875 -7.832031 5.9375 -7.625 C 6.15625 -7.425781 6.332031 -7.191406 6.46875 -6.921875 C 6.601562 -6.648438 6.6875 -6.398438 6.71875 -6.171875 C 6.757812 -5.941406 6.78125 -5.707031 6.78125 -5.46875 C 6.78125 -5.101562 6.679688 -4.722656 6.484375 -4.328125 C 6.285156 -3.941406 6.046875 -3.59375 5.765625 -3.28125 C 5.484375 -2.976562 5.195312 -2.695312 4.90625 -2.4375 C 4.625 -2.1875 4.382812 -1.988281 4.1875 -1.84375 L 3.890625 -1.640625 L 6.9375 -1.640625 L 6.9375 0 L 0.546875 0 L 0.546875 -0.46875 C 0.660156 -0.5625 0.8125 -0.6875 1 -0.84375 C 1.195312 -1.007812 1.535156 -1.320312 2.015625 -1.78125 C 2.503906 -2.238281 2.929688 -2.664062 3.296875 -3.0625 C 3.671875 -3.46875 4.007812 -3.894531 4.3125 -4.34375 C 4.613281 -4.800781 4.765625 -5.175781 4.765625 -5.46875 C 4.765625 -5.582031 4.753906 -5.691406 4.734375 -5.796875 C 4.710938 -5.910156 4.664062 -6.046875 4.59375 -6.203125 C 4.53125 -6.367188 4.410156 -6.503906 4.234375 -6.609375 C 4.066406 -6.710938 3.859375 -6.765625 3.609375 -6.765625 Z M 3.609375 -6.765625 "/></g></g></g><g fill="#000000" fill-opacity="1"><g transform="translate(120.02919, 94.916852)"><g><path d="M 0.28125 -4.09375 C 0.28125 -5.445312 0.597656 -6.492188 1.234375 -7.234375 C 1.878906 -7.972656 2.671875 -8.34375 3.609375 -8.34375 C 4.554688 -8.34375 5.347656 -7.972656 5.984375 -7.234375 C 6.628906 -6.492188 6.953125 -5.445312 6.953125 -4.09375 C 6.953125 -3.351562 6.859375 -2.707031 6.671875 -2.15625 C 6.492188 -1.601562 6.25 -1.160156 5.9375 -0.828125 C 5.625 -0.503906 5.269531 -0.257812 4.875 -0.09375 C 4.488281 0.0703125 4.066406 0.15625 3.609375 0.15625 C 3.160156 0.15625 2.738281 0.0703125 2.34375 -0.09375 C 1.957031 -0.257812 1.601562 -0.503906 1.28125 -0.828125 C 0.96875 -1.160156 0.722656 -1.601562 0.546875 -2.15625 C 0.367188 -2.707031 0.28125 -3.351562 0.28125 -4.09375 Z M 2.171875 -4.09375 C 2.171875 -3.226562 2.296875 -2.578125 2.546875 -2.140625 C 2.796875 -1.703125 3.15625 -1.484375 3.625 -1.484375 C 4.070312 -1.484375 4.421875 -1.703125 4.671875 -2.140625 C 4.929688 -2.578125 5.0625 -3.226562 5.0625 -4.09375 C 5.0625 -4.925781 4.929688 -5.566406 4.671875 -6.015625 C 4.421875 -6.472656 4.066406 -6.703125 3.609375 -6.703125 C 3.160156 -6.703125 2.804688 -6.472656 2.546875 -6.015625 C 2.296875 -5.554688 2.171875 -4.914062 2.171875 -4.09375 Z M 2.171875 -4.09375 "/></g></g></g><g fill="#000000" fill-opacity="1"><g transform="translate(114.739288, 112.352768)"><g><path d="M 0.28125 -4.84375 L 0.28125 -6.6875 L 2.625 -8.203125 L 3.515625 -8.203125 L 3.515625 0 L 1.640625 0 L 1.640625 -5.71875 Z M 0.28125 -4.84375 "/></g></g></g><g fill="#000000" fill-opacity="1"><g transform="translate(118.341931, 112.352768)"><g><path d="M 0.28125 -4.09375 C 0.28125 -5.445312 0.597656 -6.492188 1.234375 -7.234375 C 1.878906 -7.972656 2.671875 -8.34375 3.609375 -8.34375 C 4.554688 -8.34375 5.347656 -7.972656 5.984375 -7.234375 C 6.628906 -6.492188 6.953125 -5.445312 6.953125 -4.09375 C 6.953125 -3.351562 6.859375 -2.707031 6.671875 -2.15625 C 6.492188 -1.601562 6.25 -1.160156 5.9375 -0.828125 C 5.625 -0.503906 5.269531 -0.257812 4.875 -0.09375 C 4.488281 0.0703125 4.066406 0.15625 3.609375 0.15625 C 3.160156 0.15625 2.738281 0.0703125 2.34375 -0.09375 C 1.957031 -0.257812 1.601562 -0.503906 1.28125 -0.828125 C 0.96875 -1.160156 0.722656 -1.601562 0.546875 -2.15625 C 0.367188 -2.707031 0.28125 -3.351562 0.28125 -4.09375 Z M 2.171875 -4.09375 C 2.171875 -3.226562 2.296875 -2.578125 2.546875 -2.140625 C 2.796875 -1.703125 3.15625 -1.484375 3.625 -1.484375 C 4.070312 -1.484375 4.421875 -1.703125 4.671875 -2.140625 C 4.929688 -2.578125 5.0625 -3.226562 5.0625 -4.09375 C 5.0625 -4.925781 4.929688 -5.566406 4.671875 -6.015625 C 4.421875 -6.472656 4.066406 -6.703125 3.609375 -6.703125 C 3.160156 -6.703125 2.804688 -6.472656 2.546875 -6.015625 C 2.296875 -5.554688 2.171875 -4.914062 2.171875 -4.09375 Z M 2.171875 -4.09375 "/></g></g></g><path stroke-linecap="butt" transform="matrix(0.741437, 0, 0, 0.75, 111.426352, 98.408622)" fill="none" stroke-linejoin="miter" d="M -0.000769856 2.002046 L 23.270125 2.002046 " stroke="#000000" stroke-width="4" stroke-opacity="1" stroke-miterlimit="4"/><g fill="#000000" fill-opacity="1"><g transform="translate(134.170175, 102.134811)"><g><path d="M 0.59375 -6.078125 L 5.6875 -6.078125 L 5.6875 -4.546875 L 0.59375 -4.546875 Z M 0.59375 -3.6875 L 5.6875 -3.6875 L 5.6875 -2.171875 L 0.59375 -2.171875 Z M 0.59375 -3.6875 "/></g></g></g><g fill="#000000" fill-opacity="1"><g transform="translate(145.562546, 104.040248)"><g><path d="M 6.25 -11.734375 C 5.789062 -11.734375 5.351562 -11.503906 4.9375 -11.046875 C 4.519531 -10.597656 4.210938 -10.148438 4.015625 -9.703125 L 3.71875 -9.03125 L 1.015625 -10.34375 C 1.046875 -10.457031 1.101562 -10.601562 1.1875 -10.78125 C 1.269531 -10.96875 1.457031 -11.300781 1.75 -11.78125 C 2.050781 -12.257812 2.382812 -12.675781 2.75 -13.03125 C 3.113281 -13.394531 3.609375 -13.726562 4.234375 -14.03125 C 4.859375 -14.332031 5.53125 -14.484375 6.25 -14.484375 C 7.1875 -14.484375 8 -14.363281 8.6875 -14.125 C 9.382812 -13.882812 9.921875 -13.585938 10.296875 -13.234375 C 10.679688 -12.890625 10.988281 -12.476562 11.21875 -12 C 11.457031 -11.519531 11.609375 -11.082031 11.671875 -10.6875 C 11.734375 -10.300781 11.765625 -9.898438 11.765625 -9.484375 C 11.765625 -8.859375 11.59375 -8.203125 11.25 -7.515625 C 10.90625 -6.835938 10.488281 -6.226562 10 -5.6875 C 9.507812 -5.15625 9.019531 -4.664062 8.53125 -4.21875 C 8.039062 -3.78125 7.617188 -3.441406 7.265625 -3.203125 L 6.75 -2.84375 L 12.03125 -2.84375 L 12.03125 0 L 0.953125 0 L 0.953125 -0.8125 C 1.140625 -0.96875 1.398438 -1.1875 1.734375 -1.46875 C 2.066406 -1.75 2.648438 -2.285156 3.484375 -3.078125 C 4.328125 -3.878906 5.070312 -4.625 5.71875 -5.3125 C 6.363281 -6.007812 6.945312 -6.753906 7.46875 -7.546875 C 8 -8.335938 8.265625 -8.984375 8.265625 -9.484375 C 8.265625 -9.671875 8.242188 -9.863281 8.203125 -10.0625 C 8.171875 -10.257812 8.097656 -10.5 7.984375 -10.78125 C 7.867188 -11.0625 7.660156 -11.289062 7.359375 -11.46875 C 7.054688 -11.644531 6.6875 -11.734375 6.25 -11.734375 Z M 6.25 -11.734375 "/></g></g></g></svg>