<svg xmlns="http://www.w3.org/2000/svg" xmlns:xlink="http://www.w3.org/1999/xlink" width="250" zoomAndPan="magnify" viewBox="0 0 187.5 187.499992" height="250" preserveAspectRatio="xMidYMid meet" version="1.0"><defs><g/><clipPath id="e773c839ad"><path d="M 0 0 L 187 0 L 187 187 L 0 187 Z M 0 0 " clip-rule="nonzero"/></clipPath></defs><g clip-path="url(#e773c839ad)"><path fill="#ffffff" d="M 0 0 L 187.5 0 L 187.5 195 L 0 195 Z M 0 0 " fill-opacity="1" fill-rule="nonzero"/><path fill="#ffffff" d="M 0 0 L 187.5 0 L 187.5 187.5 L 0 187.5 Z M 0 0 " fill-opacity="1" fill-rule="nonzero"/><path fill="#ffffff" d="M 0 0 L 187.5 0 L 187.5 187.5 L 0 187.5 Z M 0 0 " fill-opacity="1" fill-rule="nonzero"/></g><g fill="#000000" fill-opacity="1"><g transform="translate(32.112349, 48.06403)"><g><path d="M 11.21875 -6.4375 L 11.21875 -3.9375 C 10.925781 -2.570312 10.273438 -1.539062 9.265625 -0.84375 C 8.265625 -0.144531 7.148438 0.203125 5.921875 0.203125 C 4.367188 0.203125 3.046875 -0.375 1.953125 -1.53125 C 0.859375 -2.6875 0.3125 -4.085938 0.3125 -5.734375 C 0.3125 -7.398438 0.84375 -8.804688 1.90625 -9.953125 C 2.976562 -11.109375 4.316406 -11.6875 5.921875 -11.6875 C 7.785156 -11.6875 9.257812 -11.035156 10.34375 -9.734375 L 8.625 -7.859375 C 8.019531 -8.835938 7.164062 -9.328125 6.0625 -9.328125 C 5.257812 -9.328125 4.570312 -8.972656 4 -8.265625 C 3.425781 -7.566406 3.140625 -6.722656 3.140625 -5.734375 C 3.140625 -4.765625 3.425781 -3.929688 4 -3.234375 C 4.570312 -2.546875 5.257812 -2.203125 6.0625 -2.203125 C 6.738281 -2.203125 7.320312 -2.398438 7.8125 -2.796875 C 8.3125 -3.203125 8.5625 -3.738281 8.5625 -4.40625 L 5.921875 -4.40625 L 5.921875 -6.4375 Z M 11.21875 -6.4375 "/></g></g></g><g fill="#000000" fill-opacity="1"><g transform="translate(42.956906, 48.06403)"><g><path d="M 0.828125 0 L 0.828125 -11.96875 L 3.296875 -11.96875 L 3.296875 0 Z M 0.828125 0 "/></g></g></g><g fill="#000000" fill-opacity="1"><g transform="translate(46.395008, 48.06403)"><g><path d="M 8.0625 -3.234375 L 2.875 -3.234375 C 2.875 -2.734375 3.035156 -2.359375 3.359375 -2.109375 C 3.691406 -1.867188 4.046875 -1.75 4.421875 -1.75 C 4.828125 -1.75 5.144531 -1.800781 5.375 -1.90625 C 5.601562 -2.019531 5.867188 -2.234375 6.171875 -2.546875 L 7.953125 -1.65625 C 7.203125 -0.414062 5.96875 0.203125 4.25 0.203125 C 3.164062 0.203125 2.238281 -0.160156 1.46875 -0.890625 C 0.695312 -1.628906 0.3125 -2.519531 0.3125 -3.5625 C 0.3125 -4.601562 0.695312 -5.492188 1.46875 -6.234375 C 2.238281 -6.972656 3.164062 -7.34375 4.25 -7.34375 C 5.375 -7.34375 6.289062 -7.015625 7 -6.359375 C 7.71875 -5.710938 8.078125 -4.78125 8.078125 -3.5625 C 8.078125 -3.394531 8.070312 -3.285156 8.0625 -3.234375 Z M 2.953125 -4.59375 L 5.671875 -4.59375 C 5.609375 -4.96875 5.457031 -5.253906 5.21875 -5.453125 C 4.988281 -5.648438 4.6875 -5.75 4.3125 -5.75 C 3.90625 -5.75 3.582031 -5.640625 3.34375 -5.421875 C 3.101562 -5.210938 2.972656 -4.9375 2.953125 -4.59375 Z M 2.953125 -4.59375 "/></g></g></g><g fill="#000000" fill-opacity="1"><g transform="translate(54.093219, 48.06403)"><g><path d="M 1.0625 -11.125 C 1.351562 -11.414062 1.695312 -11.5625 2.09375 -11.5625 C 2.5 -11.5625 2.84375 -11.414062 3.125 -11.125 C 3.414062 -10.832031 3.5625 -10.488281 3.5625 -10.09375 C 3.5625 -9.695312 3.414062 -9.351562 3.125 -9.0625 C 2.84375 -8.769531 2.5 -8.625 2.09375 -8.625 C 1.695312 -8.625 1.351562 -8.769531 1.0625 -9.0625 C 0.78125 -9.351562 0.640625 -9.695312 0.640625 -10.09375 C 0.640625 -10.488281 0.78125 -10.832031 1.0625 -11.125 Z M 0.828125 -7.140625 L 0.828125 0 L 3.296875 0 L 3.296875 -7.140625 Z M 0.828125 -7.140625 "/></g></g></g><g fill="#000000" fill-opacity="1"><g transform="translate(57.600936, 48.06403)"><g><path d="M 4.640625 -5.328125 C 4.171875 -5.328125 3.769531 -5.15625 3.4375 -4.8125 C 3.101562 -4.46875 2.9375 -4.054688 2.9375 -3.578125 C 2.9375 -3.085938 3.101562 -2.671875 3.4375 -2.328125 C 3.769531 -1.984375 4.171875 -1.8125 4.640625 -1.8125 C 4.859375 -1.8125 5.066406 -1.835938 5.265625 -1.890625 C 5.460938 -1.953125 5.609375 -2.007812 5.703125 -2.0625 L 5.828125 -2.140625 L 6.671875 -0.4375 C 6.609375 -0.382812 6.515625 -0.320312 6.390625 -0.25 C 6.273438 -0.1875 6.007812 -0.0976562 5.59375 0.015625 C 5.1875 0.140625 4.75 0.203125 4.28125 0.203125 C 3.226562 0.203125 2.300781 -0.160156 1.5 -0.890625 C 0.707031 -1.628906 0.3125 -2.515625 0.3125 -3.546875 C 0.3125 -4.585938 0.707031 -5.476562 1.5 -6.21875 C 2.300781 -6.96875 3.226562 -7.34375 4.28125 -7.34375 C 4.75 -7.34375 5.179688 -7.285156 5.578125 -7.171875 C 5.984375 -7.066406 6.269531 -6.957031 6.4375 -6.84375 L 6.671875 -6.6875 L 5.828125 -5 C 5.523438 -5.21875 5.128906 -5.328125 4.640625 -5.328125 Z M 4.640625 -5.328125 "/></g></g></g><g fill="#000000" fill-opacity="1"><g transform="translate(63.739889, 48.06403)"><g><path d="M 0.828125 0 L 0.828125 -11.96875 L 3.296875 -11.96875 L 3.296875 -6.390625 L 3.328125 -6.390625 C 3.960938 -7.023438 4.644531 -7.34375 5.375 -7.34375 C 5.726562 -7.34375 6.078125 -7.296875 6.421875 -7.203125 C 6.773438 -7.117188 7.109375 -6.976562 7.421875 -6.78125 C 7.742188 -6.582031 8.003906 -6.304688 8.203125 -5.953125 C 8.398438 -5.597656 8.5 -5.179688 8.5 -4.703125 L 8.5 0 L 6.046875 0 L 6.046875 -4.03125 C 6.046875 -4.40625 5.925781 -4.726562 5.6875 -5 C 5.445312 -5.28125 5.140625 -5.421875 4.765625 -5.421875 C 4.390625 -5.421875 4.050781 -5.273438 3.75 -4.984375 C 3.445312 -4.703125 3.296875 -4.382812 3.296875 -4.03125 L 3.296875 0 Z M 0.828125 0 "/></g></g></g><g fill="#000000" fill-opacity="1"><g transform="translate(72.245572, 48.06403)"><g><path d="M 3.15625 -7.140625 L 3.15625 -3.75 C 3.15625 -3.039062 3.257812 -2.535156 3.46875 -2.234375 C 3.6875 -1.941406 4.050781 -1.796875 4.5625 -1.796875 C 5.070312 -1.796875 5.429688 -1.941406 5.640625 -2.234375 C 5.859375 -2.535156 5.96875 -3.039062 5.96875 -3.75 L 5.96875 -7.140625 L 8.4375 -7.140625 L 8.4375 -3.140625 C 8.4375 -1.953125 8.125 -1.097656 7.5 -0.578125 C 6.882812 -0.0546875 5.90625 0.203125 4.5625 0.203125 C 3.21875 0.203125 2.238281 -0.0546875 1.625 -0.578125 C 1.007812 -1.097656 0.703125 -1.953125 0.703125 -3.140625 L 0.703125 -7.140625 Z M 3.15625 -7.140625 "/></g></g></g><g fill="#000000" fill-opacity="1"><g transform="translate(80.681641, 48.06403)"><g><path d="M 0.828125 0 L 0.828125 -7.140625 L 3.296875 -7.140625 L 3.296875 -6.390625 L 3.328125 -6.390625 C 3.960938 -7.023438 4.644531 -7.34375 5.375 -7.34375 C 5.726562 -7.34375 6.078125 -7.296875 6.421875 -7.203125 C 6.773438 -7.117188 7.109375 -6.976562 7.421875 -6.78125 C 7.742188 -6.582031 8.003906 -6.304688 8.203125 -5.953125 C 8.398438 -5.597656 8.5 -5.179688 8.5 -4.703125 L 8.5 0 L 6.046875 0 L 6.046875 -4.03125 C 6.046875 -4.40625 5.925781 -4.726562 5.6875 -5 C 5.445312 -5.28125 5.140625 -5.421875 4.765625 -5.421875 C 4.390625 -5.421875 4.050781 -5.273438 3.75 -4.984375 C 3.445312 -4.703125 3.296875 -4.382812 3.296875 -4.03125 L 3.296875 0 Z M 0.828125 0 "/></g></g></g><g fill="#000000" fill-opacity="1"><g transform="translate(89.187323, 48.06403)"><g><path d="M 0.515625 1.75 L 2.53125 0.765625 C 2.90625 1.378906 3.550781 1.6875 4.46875 1.6875 C 4.894531 1.6875 5.289062 1.546875 5.65625 1.265625 C 6.019531 0.992188 6.203125 0.578125 6.203125 0.015625 L 6.203125 -0.515625 C 5.773438 -0.0351562 5 0.203125 3.875 0.203125 C 2.84375 0.203125 1.988281 -0.160156 1.3125 -0.890625 C 0.644531 -1.617188 0.3125 -2.507812 0.3125 -3.5625 C 0.3125 -4.625 0.644531 -5.519531 1.3125 -6.25 C 1.988281 -6.976562 2.84375 -7.34375 3.875 -7.34375 C 4.789062 -7.34375 5.554688 -7.0625 6.171875 -6.5 L 6.203125 -6.5 L 6.203125 -7.140625 L 8.671875 -7.140625 L 8.671875 0.1875 C 8.671875 1.351562 8.285156 2.25 7.515625 2.875 C 6.742188 3.507812 5.726562 3.828125 4.46875 3.828125 C 2.425781 3.828125 1.109375 3.132812 0.515625 1.75 Z M 3.40625 -4.765625 C 3.09375 -4.453125 2.9375 -4.050781 2.9375 -3.5625 C 2.9375 -3.070312 3.085938 -2.671875 3.390625 -2.359375 C 3.703125 -2.046875 4.109375 -1.890625 4.609375 -1.890625 C 5.085938 -1.890625 5.484375 -2.046875 5.796875 -2.359375 C 6.109375 -2.679688 6.265625 -3.082031 6.265625 -3.5625 C 6.265625 -4.050781 6.101562 -4.453125 5.78125 -4.765625 C 5.457031 -5.085938 5.066406 -5.25 4.609375 -5.25 C 4.128906 -5.25 3.726562 -5.085938 3.40625 -4.765625 Z M 3.40625 -4.765625 "/></g></g></g><g fill="#000000" fill-opacity="1"><g transform="translate(97.999284, 48.06403)"><g><path d="M 8.0625 -3.234375 L 2.875 -3.234375 C 2.875 -2.734375 3.035156 -2.359375 3.359375 -2.109375 C 3.691406 -1.867188 4.046875 -1.75 4.421875 -1.75 C 4.828125 -1.75 5.144531 -1.800781 5.375 -1.90625 C 5.601562 -2.019531 5.867188 -2.234375 6.171875 -2.546875 L 7.953125 -1.65625 C 7.203125 -0.414062 5.96875 0.203125 4.25 0.203125 C 3.164062 0.203125 2.238281 -0.160156 1.46875 -0.890625 C 0.695312 -1.628906 0.3125 -2.519531 0.3125 -3.5625 C 0.3125 -4.601562 0.695312 -5.492188 1.46875 -6.234375 C 2.238281 -6.972656 3.164062 -7.34375 4.25 -7.34375 C 5.375 -7.34375 6.289062 -7.015625 7 -6.359375 C 7.71875 -5.710938 8.078125 -4.78125 8.078125 -3.5625 C 8.078125 -3.394531 8.070312 -3.285156 8.0625 -3.234375 Z M 2.953125 -4.59375 L 5.671875 -4.59375 C 5.609375 -4.96875 5.457031 -5.253906 5.21875 -5.453125 C 4.988281 -5.648438 4.6875 -5.75 4.3125 -5.75 C 3.90625 -5.75 3.582031 -5.640625 3.34375 -5.421875 C 3.101562 -5.210938 2.972656 -4.9375 2.953125 -4.59375 Z M 2.953125 -4.59375 "/></g></g></g><g fill="#000000" fill-opacity="1"><g transform="translate(105.697495, 48.06403)"><g><path d="M 0.828125 0 L 0.828125 -7.140625 L 3.296875 -7.140625 L 3.296875 -6.390625 L 3.328125 -6.390625 C 3.960938 -7.023438 4.644531 -7.34375 5.375 -7.34375 C 5.726562 -7.34375 6.078125 -7.296875 6.421875 -7.203125 C 6.773438 -7.117188 7.109375 -6.976562 7.421875 -6.78125 C 7.742188 -6.582031 8.003906 -6.304688 8.203125 -5.953125 C 8.398438 -5.597656 8.5 -5.179688 8.5 -4.703125 L 8.5 0 L 6.046875 0 L 6.046875 -4.03125 C 6.046875 -4.40625 5.925781 -4.726562 5.6875 -5 C 5.445312 -5.28125 5.140625 -5.421875 4.765625 -5.421875 C 4.390625 -5.421875 4.050781 -5.273438 3.75 -4.984375 C 3.445312 -4.703125 3.296875 -4.382812 3.296875 -4.03125 L 3.296875 0 Z M 0.828125 0 "/></g></g></g><g fill="#000000" fill-opacity="1"><g transform="translate(114.203178, 48.06403)"><g/></g></g><g fill="#000000" fill-opacity="1"><g transform="translate(117.307159, 48.06403)"><g><path d="M 0.828125 0 L 0.828125 -11.96875 L 3.296875 -11.96875 L 3.296875 0 Z M 0.828125 0 "/></g></g></g><g fill="#000000" fill-opacity="1"><g transform="translate(120.745261, 48.06403)"><g><path d="M 2.046875 -10.640625 C 2.296875 -10.890625 2.597656 -11.015625 2.953125 -11.015625 C 3.304688 -11.015625 3.609375 -10.890625 3.859375 -10.640625 C 4.109375 -10.390625 4.234375 -10.085938 4.234375 -9.734375 C 4.234375 -9.378906 4.109375 -9.078125 3.859375 -8.828125 C 3.609375 -8.578125 3.304688 -8.453125 2.953125 -8.453125 C 2.597656 -8.453125 2.296875 -8.578125 2.046875 -8.828125 C 1.796875 -9.078125 1.671875 -9.378906 1.671875 -9.734375 C 1.671875 -10.085938 1.796875 -10.390625 2.046875 -10.640625 Z M 5.34375 -10.640625 C 5.59375 -10.890625 5.894531 -11.015625 6.25 -11.015625 C 6.601562 -11.015625 6.90625 -10.890625 7.15625 -10.640625 C 7.40625 -10.390625 7.53125 -10.085938 7.53125 -9.734375 C 7.53125 -9.378906 7.40625 -9.078125 7.15625 -8.828125 C 6.90625 -8.578125 6.601562 -8.453125 6.25 -8.453125 C 5.894531 -8.453125 5.59375 -8.578125 5.34375 -8.828125 C 5.09375 -9.078125 4.96875 -9.378906 4.96875 -9.734375 C 4.96875 -10.085938 5.09375 -10.390625 5.34375 -10.640625 Z M 1.546875 -6.28125 C 0.722656 -5.570312 0.3125 -4.664062 0.3125 -3.5625 C 0.3125 -2.457031 0.707031 -1.550781 1.5 -0.84375 C 2.300781 -0.144531 3.34375 0.203125 4.625 0.203125 C 5.851562 0.203125 6.867188 -0.148438 7.671875 -0.859375 C 8.472656 -1.566406 8.875 -2.46875 8.875 -3.5625 C 8.875 -4.65625 8.460938 -5.554688 7.640625 -6.265625 C 6.828125 -6.984375 5.820312 -7.34375 4.625 -7.34375 C 3.40625 -7.34375 2.378906 -6.988281 1.546875 -6.28125 Z M 3.390625 -2.359375 C 3.085938 -2.671875 2.9375 -3.070312 2.9375 -3.5625 C 2.9375 -4.050781 3.09375 -4.453125 3.40625 -4.765625 C 3.726562 -5.085938 4.128906 -5.25 4.609375 -5.25 C 5.066406 -5.25 5.457031 -5.085938 5.78125 -4.765625 C 6.101562 -4.453125 6.265625 -4.050781 6.265625 -3.5625 C 6.265625 -3.082031 6.109375 -2.679688 5.796875 -2.359375 C 5.484375 -2.046875 5.085938 -1.890625 4.609375 -1.890625 C 4.109375 -1.890625 3.703125 -2.046875 3.390625 -2.359375 Z M 3.390625 -2.359375 "/></g></g></g><g fill="#000000" fill-opacity="1"><g transform="translate(129.250944, 48.06403)"><g><path d="M 3.9375 -7.34375 C 4.34375 -7.34375 4.742188 -7.296875 5.140625 -7.203125 C 5.546875 -7.117188 5.847656 -7.03125 6.046875 -6.9375 L 6.328125 -6.796875 L 5.53125 -5.171875 C 4.96875 -5.472656 4.4375 -5.625 3.9375 -5.625 C 3.65625 -5.625 3.457031 -5.59375 3.34375 -5.53125 C 3.226562 -5.46875 3.171875 -5.351562 3.171875 -5.1875 C 3.171875 -5.15625 3.175781 -5.117188 3.1875 -5.078125 C 3.195312 -5.046875 3.210938 -5.007812 3.234375 -4.96875 C 3.265625 -4.9375 3.289062 -4.910156 3.3125 -4.890625 C 3.34375 -4.867188 3.382812 -4.84375 3.4375 -4.8125 C 3.488281 -4.789062 3.53125 -4.769531 3.5625 -4.75 C 3.601562 -4.738281 3.660156 -4.71875 3.734375 -4.6875 C 3.804688 -4.664062 3.859375 -4.644531 3.890625 -4.625 C 3.929688 -4.613281 3.992188 -4.59375 4.078125 -4.5625 C 4.171875 -4.539062 4.238281 -4.523438 4.28125 -4.515625 C 4.570312 -4.429688 4.820312 -4.335938 5.03125 -4.234375 C 5.25 -4.128906 5.472656 -3.988281 5.703125 -3.8125 C 5.941406 -3.632812 6.125 -3.410156 6.25 -3.140625 C 6.382812 -2.878906 6.453125 -2.578125 6.453125 -2.234375 C 6.453125 -0.609375 5.328125 0.203125 3.078125 0.203125 C 2.566406 0.203125 2.082031 0.125 1.625 -0.03125 C 1.164062 -0.1875 0.832031 -0.34375 0.625 -0.5 L 0.3125 -0.75 L 1.328125 -2.4375 C 1.398438 -2.375 1.492188 -2.296875 1.609375 -2.203125 C 1.734375 -2.117188 1.953125 -2 2.265625 -1.84375 C 2.585938 -1.6875 2.863281 -1.609375 3.09375 -1.609375 C 3.601562 -1.609375 3.859375 -1.78125 3.859375 -2.125 C 3.859375 -2.28125 3.789062 -2.398438 3.65625 -2.484375 C 3.53125 -2.578125 3.3125 -2.679688 3 -2.796875 C 2.6875 -2.910156 2.441406 -3.015625 2.265625 -3.109375 C 1.816406 -3.335938 1.460938 -3.597656 1.203125 -3.890625 C 0.953125 -4.179688 0.828125 -4.566406 0.828125 -5.046875 C 0.828125 -5.773438 1.101562 -6.335938 1.65625 -6.734375 C 2.21875 -7.140625 2.976562 -7.34375 3.9375 -7.34375 Z M 3.9375 -7.34375 "/></g></g></g><g fill="#000000" fill-opacity="1"><g transform="translate(135.403825, 48.06403)"><g><path d="M 8.0625 -3.234375 L 2.875 -3.234375 C 2.875 -2.734375 3.035156 -2.359375 3.359375 -2.109375 C 3.691406 -1.867188 4.046875 -1.75 4.421875 -1.75 C 4.828125 -1.75 5.144531 -1.800781 5.375 -1.90625 C 5.601562 -2.019531 5.867188 -2.234375 6.171875 -2.546875 L 7.953125 -1.65625 C 7.203125 -0.414062 5.96875 0.203125 4.25 0.203125 C 3.164062 0.203125 2.238281 -0.160156 1.46875 -0.890625 C 0.695312 -1.628906 0.3125 -2.519531 0.3125 -3.5625 C 0.3125 -4.601562 0.695312 -5.492188 1.46875 -6.234375 C 2.238281 -6.972656 3.164062 -7.34375 4.25 -7.34375 C 5.375 -7.34375 6.289062 -7.015625 7 -6.359375 C 7.71875 -5.710938 8.078125 -4.78125 8.078125 -3.5625 C 8.078125 -3.394531 8.070312 -3.285156 8.0625 -3.234375 Z M 2.953125 -4.59375 L 5.671875 -4.59375 C 5.609375 -4.96875 5.457031 -5.253906 5.21875 -5.453125 C 4.988281 -5.648438 4.6875 -5.75 4.3125 -5.75 C 3.90625 -5.75 3.582031 -5.640625 3.34375 -5.421875 C 3.101562 -5.210938 2.972656 -4.9375 2.953125 -4.59375 Z M 2.953125 -4.59375 "/></g></g></g><g fill="#000000" fill-opacity="1"><g transform="translate(143.102035, 48.06403)"><g><path d="M 0.828125 0 L 0.828125 -7.140625 L 3.296875 -7.140625 L 3.296875 -6.390625 L 3.328125 -6.390625 C 3.960938 -7.023438 4.644531 -7.34375 5.375 -7.34375 C 5.726562 -7.34375 6.078125 -7.296875 6.421875 -7.203125 C 6.773438 -7.117188 7.109375 -6.976562 7.421875 -6.78125 C 7.742188 -6.582031 8.003906 -6.304688 8.203125 -5.953125 C 8.398438 -5.597656 8.5 -5.179688 8.5 -4.703125 L 8.5 0 L 6.046875 0 L 6.046875 -4.03125 C 6.046875 -4.40625 5.925781 -4.726562 5.6875 -5 C 5.445312 -5.28125 5.140625 -5.421875 4.765625 -5.421875 C 4.390625 -5.421875 4.050781 -5.273438 3.75 -4.984375 C 3.445312 -4.703125 3.296875 -4.382812 3.296875 -4.03125 L 3.296875 0 Z M 0.828125 0 "/></g></g></g><g fill="#000000" fill-opacity="1"><g transform="translate(151.596709, 48.06403)"><g/></g></g><g fill="#000000" fill-opacity="1"><g transform="translate(54.002005, 99.472413)"><g><path d="M 12.984375 0 L 8.734375 0 L 6.484375 -2.875 L 4.25 0 L 0 0 L 4.34375 -5.3125 L 0.609375 -10.1875 L 4.71875 -10.1875 L 6.484375 -7.8125 L 8.25 -10.1875 L 12.359375 -10.1875 L 8.625 -5.3125 Z M 12.984375 0 "/></g></g></g><g fill="#000000" fill-opacity="1"><g transform="translate(65.9848, 99.472413)"><g/></g></g><g fill="#000000" fill-opacity="1"><g transform="translate(70.408648, 99.472413)"><g><path d="M 7.796875 -3.140625 L 4.765625 -3.140625 L 4.765625 -6.703125 L 1.1875 -6.703125 L 1.1875 -9.75 L 4.765625 -9.75 L 4.765625 -13.3125 L 7.796875 -13.3125 L 7.796875 -9.75 L 11.375 -9.75 L 11.375 -6.703125 L 7.796875 -6.703125 Z M 7.796875 -3.140625 "/></g></g></g><g fill="#000000" fill-opacity="1"><g transform="translate(81.974809, 99.472413)"><g/></g></g><g fill="#000000" fill-opacity="1"><g transform="translate(86.398657, 99.472413)"><g><path d="M 7.203125 -13.515625 C 6.671875 -13.515625 6.164062 -13.253906 5.6875 -12.734375 C 5.207031 -12.210938 4.851562 -11.691406 4.625 -11.171875 L 4.28125 -10.390625 L 1.171875 -11.90625 C 1.210938 -12.039062 1.28125 -12.210938 1.375 -12.421875 C 1.46875 -12.628906 1.6875 -13.007812 2.03125 -13.5625 C 2.375 -14.113281 2.753906 -14.597656 3.171875 -15.015625 C 3.585938 -15.429688 4.15625 -15.8125 4.875 -16.15625 C 5.59375 -16.5 6.367188 -16.671875 7.203125 -16.671875 C 8.273438 -16.671875 9.210938 -16.535156 10.015625 -16.265625 C 10.816406 -15.992188 11.429688 -15.65625 11.859375 -15.25 C 12.296875 -14.84375 12.648438 -14.363281 12.921875 -13.8125 C 13.191406 -13.269531 13.363281 -12.769531 13.4375 -12.3125 C 13.507812 -11.863281 13.546875 -11.398438 13.546875 -10.921875 C 13.546875 -10.203125 13.347656 -9.445312 12.953125 -8.65625 C 12.554688 -7.875 12.078125 -7.175781 11.515625 -6.5625 C 10.953125 -5.945312 10.382812 -5.382812 9.8125 -4.875 C 9.25 -4.363281 8.769531 -3.96875 8.375 -3.6875 L 7.78125 -3.28125 L 13.84375 -3.28125 L 13.84375 0 L 1.09375 0 L 1.09375 -0.9375 C 1.3125 -1.113281 1.613281 -1.363281 2 -1.6875 C 2.382812 -2.019531 3.0625 -2.640625 4.03125 -3.546875 C 5 -4.460938 5.851562 -5.320312 6.59375 -6.125 C 7.332031 -6.925781 8.003906 -7.78125 8.609375 -8.6875 C 9.222656 -9.601562 9.53125 -10.347656 9.53125 -10.921875 C 9.53125 -11.140625 9.503906 -11.359375 9.453125 -11.578125 C 9.410156 -11.804688 9.320312 -12.082031 9.1875 -12.40625 C 9.050781 -12.738281 8.8125 -13.003906 8.46875 -13.203125 C 8.125 -13.410156 7.703125 -13.515625 7.203125 -13.515625 Z M 7.203125 -13.515625 "/></g></g></g><g fill="#000000" fill-opacity="1"><g transform="translate(100.34559, 99.472413)"><g/></g></g><g fill="#000000" fill-opacity="1"><g transform="translate(104.769438, 99.472413)"><g><path d="M 1.1875 -12.125 L 11.375 -12.125 L 11.375 -9.09375 L 1.1875 -9.09375 Z M 1.1875 -7.359375 L 11.375 -7.359375 L 11.375 -4.328125 L 1.1875 -4.328125 Z M 1.1875 -7.359375 "/></g></g></g><g fill="#000000" fill-opacity="1"><g transform="translate(116.335596, 99.472413)"><g/></g></g><g fill="#000000" fill-opacity="1"><g transform="translate(120.759447, 99.472413)"><g><path d="M 0.359375 -3.25 L 3.3125 -4.6875 C 3.6875 -3.4375 4.644531 -2.8125 6.1875 -2.8125 C 6.863281 -2.8125 7.421875 -3.035156 7.859375 -3.484375 C 8.304688 -3.941406 8.53125 -4.515625 8.53125 -5.203125 C 8.53125 -5.890625 8.316406 -6.453125 7.890625 -6.890625 C 7.460938 -7.335938 6.945312 -7.644531 6.34375 -7.8125 C 5.738281 -7.988281 5.050781 -8.078125 4.28125 -8.078125 C 3.195312 -8.078125 2.265625 -7.90625 1.484375 -7.5625 L 2.859375 -16.375 L 11.21875 -16.375 L 11.21875 -13.09375 L 6.046875 -13.09375 L 5.6875 -10.8125 C 5.726562 -10.8125 5.800781 -10.8125 5.90625 -10.8125 C 6.019531 -10.820312 6.101562 -10.828125 6.15625 -10.828125 C 6.988281 -10.828125 7.742188 -10.734375 8.421875 -10.546875 C 9.109375 -10.367188 9.75 -10.070312 10.34375 -9.65625 C 10.945312 -9.25 11.414062 -8.65625 11.75 -7.875 C 12.09375 -7.09375 12.265625 -6.160156 12.265625 -5.078125 C 12.265625 -3.515625 11.691406 -2.226562 10.546875 -1.21875 C 9.398438 -0.207031 7.945312 0.296875 6.1875 0.296875 C 4.59375 0.296875 3.3125 -0.046875 2.34375 -0.734375 C 1.375 -1.429688 0.710938 -2.269531 0.359375 -3.25 Z M 0.359375 -3.25 "/></g></g></g><g fill="#000000" fill-opacity="1"><g transform="translate(70.548878, 118.22241)"><g><path d="M 13.078125 0 L 8.796875 0 L 6.546875 -2.90625 L 4.28125 0 L 0 0 L 4.375 -5.359375 L 0.625 -10.265625 L 4.765625 -10.265625 L 6.546875 -7.875 L 8.3125 -10.265625 L 12.453125 -10.265625 L 8.703125 -5.359375 Z M 13.078125 0 "/></g></g></g><g fill="#000000" fill-opacity="1"><g transform="translate(82.623715, 118.22241)"><g/></g></g><g fill="#000000" fill-opacity="1"><g transform="translate(87.08156, 118.22241)"><g><path d="M 1.203125 -12.21875 L 11.453125 -12.21875 L 11.453125 -9.15625 L 1.203125 -9.15625 Z M 1.203125 -7.421875 L 11.453125 -7.421875 L 11.453125 -4.359375 L 1.203125 -4.359375 Z M 1.203125 -7.421875 "/></g></g></g><g fill="#000000" fill-opacity="1"><g transform="translate(98.73656, 118.22241)"><g/></g></g><g fill="#000000" fill-opacity="1"><g transform="translate(103.194405, 118.22241)"><g><path d="M 14.265625 -16.5 L 14.265625 -15.40625 L 5.546875 0 L 1.09375 0 L 8.703125 -13.203125 L 1.59375 -13.203125 L 1.59375 -16.5 Z M 14.265625 -16.5 "/></g></g></g></svg>