<svg xmlns="http://www.w3.org/2000/svg" xmlns:xlink="http://www.w3.org/1999/xlink" width="250" zoomAndPan="magnify" viewBox="0 0 187.5 187.499992" height="250" preserveAspectRatio="xMidYMid meet" version="1.0"><defs><g/><clipPath id="8bf55f3dba"><path d="M 0 0 L 187 0 L 187 187 L 0 187 Z M 0 0 " clip-rule="nonzero"/></clipPath><clipPath id="3bcd048dea"><path d="M 92.464844 75.085938 L 95.019531 75.085938 L 95.019531 161.726562 L 92.464844 161.726562 Z M 92.464844 75.085938 " clip-rule="nonzero"/></clipPath><clipPath id="4031bfeb13"><path d="M 89.75 114.214844 L 97.75 114.214844 L 97.75 122.21875 L 89.75 122.21875 Z M 89.75 114.214844 " clip-rule="nonzero"/></clipPath><clipPath id="38cef24249"><path d="M 93.75 114.214844 C 91.539062 114.214844 89.75 116.007812 89.75 118.214844 C 89.75 120.425781 91.539062 122.21875 93.75 122.21875 C 95.960938 122.21875 97.75 120.425781 97.75 118.214844 C 97.75 116.007812 95.960938 114.214844 93.75 114.214844 " clip-rule="nonzero"/></clipPath><clipPath id="37c1294c13"><path d="M 48.628906 73.097656 L 138.628906 73.097656 L 138.628906 163.097656 L 48.628906 163.097656 Z M 48.628906 73.097656 " clip-rule="nonzero"/></clipPath><clipPath id="038e763ae0"><path d="M 93.75 116.941406 L 136 116.941406 L 136 119.492188 L 93.75 119.492188 Z M 93.75 116.941406 " clip-rule="nonzero"/></clipPath></defs><g clip-path="url(#8bf55f3dba)"><path fill="#ffffff" d="M 0 0 L 187.5 0 L 187.5 195 L 0 195 Z M 0 0 " fill-opacity="1" fill-rule="nonzero"/><path fill="#ffffff" d="M 0 0 L 187.5 0 L 187.5 187.5 L 0 187.5 Z M 0 0 " fill-opacity="1" fill-rule="nonzero"/><path fill="#ffffff" d="M 0 0 L 187.5 0 L 187.5 187.5 L 0 187.5 Z M 0 0 " fill-opacity="1" fill-rule="nonzero"/></g><g fill="#000000" fill-opacity="1"><g transform="translate(40.022504, 48.06403)"><g><path d="M 11.296875 0 L 7.6875 0 L 3.453125 -4.875 L 3.453125 0 L 0.828125 0 L 0.828125 -11.484375 L 3.453125 -11.484375 L 3.453125 -6.796875 L 7.390625 -11.484375 L 10.5625 -11.484375 L 5.9375 -6.046875 Z M 11.296875 0 "/></g></g></g><g fill="#000000" fill-opacity="1"><g transform="translate(50.282349, 48.06403)"><g><path d="M 0.828125 0 L 0.828125 -7.140625 L 3.296875 -7.140625 L 3.296875 -6.109375 L 3.328125 -6.109375 C 3.347656 -6.148438 3.378906 -6.195312 3.421875 -6.25 C 3.460938 -6.300781 3.550781 -6.394531 3.6875 -6.53125 C 3.820312 -6.675781 3.96875 -6.804688 4.125 -6.921875 C 4.289062 -7.035156 4.5 -7.132812 4.75 -7.21875 C 5 -7.300781 5.253906 -7.34375 5.515625 -7.34375 C 5.785156 -7.34375 6.050781 -7.304688 6.3125 -7.234375 C 6.570312 -7.160156 6.757812 -7.085938 6.875 -7.015625 L 7.078125 -6.90625 L 6.046875 -4.8125 C 5.734375 -5.070312 5.304688 -5.203125 4.765625 -5.203125 C 4.460938 -5.203125 4.203125 -5.132812 3.984375 -5 C 3.773438 -4.875 3.625 -4.71875 3.53125 -4.53125 C 3.445312 -4.351562 3.382812 -4.195312 3.34375 -4.0625 C 3.3125 -3.9375 3.296875 -3.835938 3.296875 -3.765625 L 3.296875 0 Z M 0.828125 0 "/></g></g></g><g fill="#000000" fill-opacity="1"><g transform="translate(56.51876, 48.06403)"><g><path d="M 8.0625 -3.234375 L 2.875 -3.234375 C 2.875 -2.734375 3.035156 -2.359375 3.359375 -2.109375 C 3.691406 -1.867188 4.046875 -1.75 4.421875 -1.75 C 4.828125 -1.75 5.144531 -1.800781 5.375 -1.90625 C 5.601562 -2.019531 5.867188 -2.234375 6.171875 -2.546875 L 7.953125 -1.65625 C 7.203125 -0.414062 5.96875 0.203125 4.25 0.203125 C 3.164062 0.203125 2.238281 -0.160156 1.46875 -0.890625 C 0.695312 -1.628906 0.3125 -2.519531 0.3125 -3.5625 C 0.3125 -4.601562 0.695312 -5.492188 1.46875 -6.234375 C 2.238281 -6.972656 3.164062 -7.34375 4.25 -7.34375 C 5.375 -7.34375 6.289062 -7.015625 7 -6.359375 C 7.71875 -5.710938 8.078125 -4.78125 8.078125 -3.5625 C 8.078125 -3.394531 8.070312 -3.285156 8.0625 -3.234375 Z M 2.953125 -4.59375 L 5.671875 -4.59375 C 5.609375 -4.96875 5.457031 -5.253906 5.21875 -5.453125 C 4.988281 -5.648438 4.6875 -5.75 4.3125 -5.75 C 3.90625 -5.75 3.582031 -5.640625 3.34375 -5.421875 C 3.101562 -5.210938 2.972656 -4.9375 2.953125 -4.59375 Z M 2.953125 -4.59375 "/></g></g></g><g fill="#000000" fill-opacity="1"><g transform="translate(64.21697, 48.06403)"><g><path d="M 1.0625 -11.125 C 1.351562 -11.414062 1.695312 -11.5625 2.09375 -11.5625 C 2.5 -11.5625 2.84375 -11.414062 3.125 -11.125 C 3.414062 -10.832031 3.5625 -10.488281 3.5625 -10.09375 C 3.5625 -9.695312 3.414062 -9.351562 3.125 -9.0625 C 2.84375 -8.769531 2.5 -8.625 2.09375 -8.625 C 1.695312 -8.625 1.351562 -8.769531 1.0625 -9.0625 C 0.78125 -9.351562 0.640625 -9.695312 0.640625 -10.09375 C 0.640625 -10.488281 0.78125 -10.832031 1.0625 -11.125 Z M 0.828125 -7.140625 L 0.828125 0 L 3.296875 0 L 3.296875 -7.140625 Z M 0.828125 -7.140625 "/></g></g></g><g fill="#000000" fill-opacity="1"><g transform="translate(67.724687, 48.06403)"><g><path d="M 3.9375 -7.34375 C 4.34375 -7.34375 4.742188 -7.296875 5.140625 -7.203125 C 5.546875 -7.117188 5.847656 -7.03125 6.046875 -6.9375 L 6.328125 -6.796875 L 5.53125 -5.171875 C 4.96875 -5.472656 4.4375 -5.625 3.9375 -5.625 C 3.65625 -5.625 3.457031 -5.59375 3.34375 -5.53125 C 3.226562 -5.46875 3.171875 -5.351562 3.171875 -5.1875 C 3.171875 -5.15625 3.175781 -5.117188 3.1875 -5.078125 C 3.195312 -5.046875 3.210938 -5.007812 3.234375 -4.96875 C 3.265625 -4.9375 3.289062 -4.910156 3.3125 -4.890625 C 3.34375 -4.867188 3.382812 -4.84375 3.4375 -4.8125 C 3.488281 -4.789062 3.53125 -4.769531 3.5625 -4.75 C 3.601562 -4.738281 3.660156 -4.71875 3.734375 -4.6875 C 3.804688 -4.664062 3.859375 -4.644531 3.890625 -4.625 C 3.929688 -4.613281 3.992188 -4.59375 4.078125 -4.5625 C 4.171875 -4.539062 4.238281 -4.523438 4.28125 -4.515625 C 4.570312 -4.429688 4.820312 -4.335938 5.03125 -4.234375 C 5.25 -4.128906 5.472656 -3.988281 5.703125 -3.8125 C 5.941406 -3.632812 6.125 -3.410156 6.25 -3.140625 C 6.382812 -2.878906 6.453125 -2.578125 6.453125 -2.234375 C 6.453125 -0.609375 5.328125 0.203125 3.078125 0.203125 C 2.566406 0.203125 2.082031 0.125 1.625 -0.03125 C 1.164062 -0.1875 0.832031 -0.34375 0.625 -0.5 L 0.3125 -0.75 L 1.328125 -2.4375 C 1.398438 -2.375 1.492188 -2.296875 1.609375 -2.203125 C 1.734375 -2.117188 1.953125 -2 2.265625 -1.84375 C 2.585938 -1.6875 2.863281 -1.609375 3.09375 -1.609375 C 3.601562 -1.609375 3.859375 -1.78125 3.859375 -2.125 C 3.859375 -2.28125 3.789062 -2.398438 3.65625 -2.484375 C 3.53125 -2.578125 3.3125 -2.679688 3 -2.796875 C 2.6875 -2.910156 2.441406 -3.015625 2.265625 -3.109375 C 1.816406 -3.335938 1.460938 -3.597656 1.203125 -3.890625 C 0.953125 -4.179688 0.828125 -4.566406 0.828125 -5.046875 C 0.828125 -5.773438 1.101562 -6.335938 1.65625 -6.734375 C 2.21875 -7.140625 2.976562 -7.34375 3.9375 -7.34375 Z M 3.9375 -7.34375 "/></g></g></g><g fill="#000000" fill-opacity="1"><g transform="translate(73.877568, 48.06403)"><g/></g></g><g fill="#000000" fill-opacity="1"><g transform="translate(76.981549, 48.06403)"><g><path d="M 8.1875 -6.25 C 8.851562 -5.519531 9.1875 -4.625 9.1875 -3.5625 C 9.1875 -2.507812 8.851562 -1.617188 8.1875 -0.890625 C 7.519531 -0.160156 6.671875 0.203125 5.640625 0.203125 C 4.691406 0.203125 3.910156 -0.132812 3.296875 -0.8125 L 3.265625 -0.8125 L 3.265625 0 L 0.828125 0 L 0.828125 -11.96875 L 3.296875 -11.96875 L 3.296875 -6.453125 C 3.910156 -7.046875 4.691406 -7.34375 5.640625 -7.34375 C 6.671875 -7.34375 7.519531 -6.976562 8.1875 -6.25 Z M 6.109375 -2.359375 C 6.421875 -2.671875 6.578125 -3.070312 6.578125 -3.5625 C 6.578125 -4.050781 6.414062 -4.453125 6.09375 -4.765625 C 5.769531 -5.085938 5.375 -5.25 4.90625 -5.25 C 4.4375 -5.25 4.039062 -5.085938 3.71875 -4.765625 C 3.40625 -4.453125 3.25 -4.050781 3.25 -3.5625 C 3.25 -3.082031 3.398438 -2.679688 3.703125 -2.359375 C 4.015625 -2.046875 4.414062 -1.890625 4.90625 -1.890625 C 5.40625 -1.890625 5.804688 -2.046875 6.109375 -2.359375 Z M 6.109375 -2.359375 "/></g></g></g><g fill="#000000" fill-opacity="1"><g transform="translate(85.79351, 48.06403)"><g><path d="M 8.0625 -3.234375 L 2.875 -3.234375 C 2.875 -2.734375 3.035156 -2.359375 3.359375 -2.109375 C 3.691406 -1.867188 4.046875 -1.75 4.421875 -1.75 C 4.828125 -1.75 5.144531 -1.800781 5.375 -1.90625 C 5.601562 -2.019531 5.867188 -2.234375 6.171875 -2.546875 L 7.953125 -1.65625 C 7.203125 -0.414062 5.96875 0.203125 4.25 0.203125 C 3.164062 0.203125 2.238281 -0.160156 1.46875 -0.890625 C 0.695312 -1.628906 0.3125 -2.519531 0.3125 -3.5625 C 0.3125 -4.601562 0.695312 -5.492188 1.46875 -6.234375 C 2.238281 -6.972656 3.164062 -7.34375 4.25 -7.34375 C 5.375 -7.34375 6.289062 -7.015625 7 -6.359375 C 7.71875 -5.710938 8.078125 -4.78125 8.078125 -3.5625 C 8.078125 -3.394531 8.070312 -3.285156 8.0625 -3.234375 Z M 2.953125 -4.59375 L 5.671875 -4.59375 C 5.609375 -4.96875 5.457031 -5.253906 5.21875 -5.453125 C 4.988281 -5.648438 4.6875 -5.75 4.3125 -5.75 C 3.90625 -5.75 3.582031 -5.640625 3.34375 -5.421875 C 3.101562 -5.210938 2.972656 -4.9375 2.953125 -4.59375 Z M 2.953125 -4.59375 "/></g></g></g><g fill="#000000" fill-opacity="1"><g transform="translate(93.49172, 48.06403)"><g><path d="M 0.828125 0 L 0.828125 -7.140625 L 3.296875 -7.140625 L 3.296875 -6.109375 L 3.328125 -6.109375 C 3.347656 -6.148438 3.378906 -6.195312 3.421875 -6.25 C 3.460938 -6.300781 3.550781 -6.394531 3.6875 -6.53125 C 3.820312 -6.675781 3.96875 -6.804688 4.125 -6.921875 C 4.289062 -7.035156 4.5 -7.132812 4.75 -7.21875 C 5 -7.300781 5.253906 -7.34375 5.515625 -7.34375 C 5.785156 -7.34375 6.050781 -7.304688 6.3125 -7.234375 C 6.570312 -7.160156 6.757812 -7.085938 6.875 -7.015625 L 7.078125 -6.90625 L 6.046875 -4.8125 C 5.734375 -5.070312 5.304688 -5.203125 4.765625 -5.203125 C 4.460938 -5.203125 4.203125 -5.132812 3.984375 -5 C 3.773438 -4.875 3.625 -4.71875 3.53125 -4.53125 C 3.445312 -4.351562 3.382812 -4.195312 3.34375 -4.0625 C 3.3125 -3.9375 3.296875 -3.835938 3.296875 -3.765625 L 3.296875 0 Z M 0.828125 0 "/></g></g></g><g fill="#000000" fill-opacity="1"><g transform="translate(99.728132, 48.06403)"><g><path d="M 8.0625 -3.234375 L 2.875 -3.234375 C 2.875 -2.734375 3.035156 -2.359375 3.359375 -2.109375 C 3.691406 -1.867188 4.046875 -1.75 4.421875 -1.75 C 4.828125 -1.75 5.144531 -1.800781 5.375 -1.90625 C 5.601562 -2.019531 5.867188 -2.234375 6.171875 -2.546875 L 7.953125 -1.65625 C 7.203125 -0.414062 5.96875 0.203125 4.25 0.203125 C 3.164062 0.203125 2.238281 -0.160156 1.46875 -0.890625 C 0.695312 -1.628906 0.3125 -2.519531 0.3125 -3.5625 C 0.3125 -4.601562 0.695312 -5.492188 1.46875 -6.234375 C 2.238281 -6.972656 3.164062 -7.34375 4.25 -7.34375 C 5.375 -7.34375 6.289062 -7.015625 7 -6.359375 C 7.71875 -5.710938 8.078125 -4.78125 8.078125 -3.5625 C 8.078125 -3.394531 8.070312 -3.285156 8.0625 -3.234375 Z M 2.953125 -4.59375 L 5.671875 -4.59375 C 5.609375 -4.96875 5.457031 -5.253906 5.21875 -5.453125 C 4.988281 -5.648438 4.6875 -5.75 4.3125 -5.75 C 3.90625 -5.75 3.582031 -5.640625 3.34375 -5.421875 C 3.101562 -5.210938 2.972656 -4.9375 2.953125 -4.59375 Z M 2.953125 -4.59375 "/></g></g></g><g fill="#000000" fill-opacity="1"><g transform="translate(107.426342, 48.06403)"><g><path d="M 4.640625 -5.328125 C 4.171875 -5.328125 3.769531 -5.15625 3.4375 -4.8125 C 3.101562 -4.46875 2.9375 -4.054688 2.9375 -3.578125 C 2.9375 -3.085938 3.101562 -2.671875 3.4375 -2.328125 C 3.769531 -1.984375 4.171875 -1.8125 4.640625 -1.8125 C 4.859375 -1.8125 5.066406 -1.835938 5.265625 -1.890625 C 5.460938 -1.953125 5.609375 -2.007812 5.703125 -2.0625 L 5.828125 -2.140625 L 6.671875 -0.4375 C 6.609375 -0.382812 6.515625 -0.320312 6.390625 -0.25 C 6.273438 -0.1875 6.007812 -0.0976562 5.59375 0.015625 C 5.1875 0.140625 4.75 0.203125 4.28125 0.203125 C 3.226562 0.203125 2.300781 -0.160156 1.5 -0.890625 C 0.707031 -1.628906 0.3125 -2.515625 0.3125 -3.546875 C 0.3125 -4.585938 0.707031 -5.476562 1.5 -6.21875 C 2.300781 -6.96875 3.226562 -7.34375 4.28125 -7.34375 C 4.75 -7.34375 5.179688 -7.285156 5.578125 -7.171875 C 5.984375 -7.066406 6.269531 -6.957031 6.4375 -6.84375 L 6.671875 -6.6875 L 5.828125 -5 C 5.523438 -5.21875 5.128906 -5.328125 4.640625 -5.328125 Z M 4.640625 -5.328125 "/></g></g></g><g fill="#000000" fill-opacity="1"><g transform="translate(113.565296, 48.06403)"><g><path d="M 0.828125 0 L 0.828125 -11.96875 L 3.296875 -11.96875 L 3.296875 -6.390625 L 3.328125 -6.390625 C 3.960938 -7.023438 4.644531 -7.34375 5.375 -7.34375 C 5.726562 -7.34375 6.078125 -7.296875 6.421875 -7.203125 C 6.773438 -7.117188 7.109375 -6.976562 7.421875 -6.78125 C 7.742188 -6.582031 8.003906 -6.304688 8.203125 -5.953125 C 8.398438 -5.597656 8.5 -5.179688 8.5 -4.703125 L 8.5 0 L 6.046875 0 L 6.046875 -4.03125 C 6.046875 -4.40625 5.925781 -4.726562 5.6875 -5 C 5.445312 -5.28125 5.140625 -5.421875 4.765625 -5.421875 C 4.390625 -5.421875 4.050781 -5.273438 3.75 -4.984375 C 3.445312 -4.703125 3.296875 -4.382812 3.296875 -4.03125 L 3.296875 0 Z M 0.828125 0 "/></g></g></g><g fill="#000000" fill-opacity="1"><g transform="translate(122.070979, 48.06403)"><g><path d="M 0.828125 0 L 0.828125 -7.140625 L 3.296875 -7.140625 L 3.296875 -6.390625 L 3.328125 -6.390625 C 3.960938 -7.023438 4.644531 -7.34375 5.375 -7.34375 C 5.726562 -7.34375 6.078125 -7.296875 6.421875 -7.203125 C 6.773438 -7.117188 7.109375 -6.976562 7.421875 -6.78125 C 7.742188 -6.582031 8.003906 -6.304688 8.203125 -5.953125 C 8.398438 -5.597656 8.5 -5.179688 8.5 -4.703125 L 8.5 0 L 6.046875 0 L 6.046875 -4.03125 C 6.046875 -4.40625 5.925781 -4.726562 5.6875 -5 C 5.445312 -5.28125 5.140625 -5.421875 4.765625 -5.421875 C 4.390625 -5.421875 4.050781 -5.273438 3.75 -4.984375 C 3.445312 -4.703125 3.296875 -4.382812 3.296875 -4.03125 L 3.296875 0 Z M 0.828125 0 "/></g></g></g><g fill="#000000" fill-opacity="1"><g transform="translate(130.576661, 48.06403)"><g><path d="M 8.0625 -3.234375 L 2.875 -3.234375 C 2.875 -2.734375 3.035156 -2.359375 3.359375 -2.109375 C 3.691406 -1.867188 4.046875 -1.75 4.421875 -1.75 C 4.828125 -1.75 5.144531 -1.800781 5.375 -1.90625 C 5.601562 -2.019531 5.867188 -2.234375 6.171875 -2.546875 L 7.953125 -1.65625 C 7.203125 -0.414062 5.96875 0.203125 4.25 0.203125 C 3.164062 0.203125 2.238281 -0.160156 1.46875 -0.890625 C 0.695312 -1.628906 0.3125 -2.519531 0.3125 -3.5625 C 0.3125 -4.601562 0.695312 -5.492188 1.46875 -6.234375 C 2.238281 -6.972656 3.164062 -7.34375 4.25 -7.34375 C 5.375 -7.34375 6.289062 -7.015625 7 -6.359375 C 7.71875 -5.710938 8.078125 -4.78125 8.078125 -3.5625 C 8.078125 -3.394531 8.070312 -3.285156 8.0625 -3.234375 Z M 2.953125 -4.59375 L 5.671875 -4.59375 C 5.609375 -4.96875 5.457031 -5.253906 5.21875 -5.453125 C 4.988281 -5.648438 4.6875 -5.75 4.3125 -5.75 C 3.90625 -5.75 3.582031 -5.640625 3.34375 -5.421875 C 3.101562 -5.210938 2.972656 -4.9375 2.953125 -4.59375 Z M 2.953125 -4.59375 "/></g></g></g><g fill="#000000" fill-opacity="1"><g transform="translate(138.274872, 48.06403)"><g><path d="M 0.828125 0 L 0.828125 -7.140625 L 3.296875 -7.140625 L 3.296875 -6.390625 L 3.328125 -6.390625 C 3.960938 -7.023438 4.644531 -7.34375 5.375 -7.34375 C 5.726562 -7.34375 6.078125 -7.296875 6.421875 -7.203125 C 6.773438 -7.117188 7.109375 -6.976562 7.421875 -6.78125 C 7.742188 -6.582031 8.003906 -6.304688 8.203125 -5.953125 C 8.398438 -5.597656 8.5 -5.179688 8.5 -4.703125 L 8.5 0 L 6.046875 0 L 6.046875 -4.03125 C 6.046875 -4.40625 5.925781 -4.726562 5.6875 -5 C 5.445312 -5.28125 5.140625 -5.421875 4.765625 -5.421875 C 4.390625 -5.421875 4.050781 -5.273438 3.75 -4.984375 C 3.445312 -4.703125 3.296875 -4.382812 3.296875 -4.03125 L 3.296875 0 Z M 0.828125 0 "/></g></g></g><g clip-path="url(#3bcd048dea)"><path fill="#ff1616" d="M 95.019531 75.085938 L 95.019531 162.160156 L 92.324219 162.160156 L 92.324219 75.085938 Z M 95.019531 75.085938 " fill-opacity="1" fill-rule="nonzero"/></g><g clip-path="url(#4031bfeb13)"><g clip-path="url(#38cef24249)"><path fill="#ff914d" d="M 89.75 114.214844 L 97.75 114.214844 L 97.75 122.21875 L 89.75 122.21875 Z M 89.75 114.214844 " fill-opacity="1" fill-rule="nonzero"/></g></g><g clip-path="url(#37c1294c13)"><path fill="#000000" d="M 93.628906 163.097656 C 68.769531 163.097656 48.628906 142.820312 48.628906 118.097656 C 48.628906 93.375 68.769531 73.097656 93.628906 73.097656 C 118.492188 73.097656 138.628906 93.234375 138.628906 118.097656 C 138.628906 142.957031 118.351562 163.097656 93.628906 163.097656 Z M 93.628906 75.875 C 70.296875 75.875 51.40625 94.761719 51.40625 118.097656 C 51.40625 141.429688 70.296875 160.320312 93.628906 160.320312 C 116.964844 160.320312 135.851562 141.429688 135.851562 118.097656 C 135.851562 94.761719 116.824219 75.875 93.628906 75.875 Z M 93.628906 75.875 " fill-opacity="1" fill-rule="nonzero"/></g><g clip-path="url(#038e763ae0)"><path fill="#ff914d" d="M 93.75 116.941406 L 135.941406 116.941406 L 135.941406 119.632812 L 93.75 119.632812 Z M 93.75 116.941406 " fill-opacity="1" fill-rule="nonzero"/></g><g fill="#ff914d" fill-opacity="1"><g transform="translate(114.997214, 129.638739)"><g><path d="M 0.84375 0 L 0.84375 -5.859375 L 2.28125 -5.859375 L 2.28125 -5 L 2.390625 -4.96875 C 2.523438 -5.300781 2.707031 -5.539062 2.9375 -5.6875 C 3.175781 -5.84375 3.457031 -5.921875 3.78125 -5.921875 C 4.113281 -5.921875 4.367188 -5.863281 4.546875 -5.75 L 4.296875 -4.484375 L 4.1875 -4.453125 C 4.09375 -4.492188 4 -4.519531 3.90625 -4.53125 C 3.820312 -4.550781 3.710938 -4.5625 3.578125 -4.5625 C 3.171875 -4.5625 2.859375 -4.414062 2.640625 -4.125 C 2.421875 -3.84375 2.3125 -3.382812 2.3125 -2.75 L 2.3125 0 Z M 0.84375 0 "/></g></g></g><g fill="#ff1616" fill-opacity="1"><g transform="translate(83.931381, 99.563192)"><g><path d="M 2.890625 0.109375 C 2.429688 0.109375 2.019531 0 1.65625 -0.21875 C 1.300781 -0.445312 1.023438 -0.789062 0.828125 -1.25 C 0.628906 -1.707031 0.53125 -2.269531 0.53125 -2.9375 C 0.53125 -3.601562 0.632812 -4.160156 0.84375 -4.609375 C 1.050781 -5.066406 1.335938 -5.410156 1.703125 -5.640625 C 2.066406 -5.867188 2.488281 -5.984375 2.96875 -5.984375 C 3.332031 -5.984375 3.648438 -5.914062 3.921875 -5.78125 C 4.191406 -5.65625 4.414062 -5.460938 4.59375 -5.203125 L 4.71875 -5.234375 L 4.71875 -8.21875 L 6.1875 -8.21875 L 6.1875 0 L 4.71875 0 L 4.71875 -0.765625 L 4.59375 -0.78125 C 4.4375 -0.5 4.210938 -0.28125 3.921875 -0.125 C 3.640625 0.03125 3.296875 0.109375 2.890625 0.109375 Z M 3.375 -1.140625 C 3.789062 -1.140625 4.117188 -1.285156 4.359375 -1.578125 C 4.597656 -1.878906 4.71875 -2.332031 4.71875 -2.9375 C 4.71875 -3.53125 4.597656 -3.976562 4.359375 -4.28125 C 4.117188 -4.582031 3.789062 -4.734375 3.375 -4.734375 C 2.945312 -4.734375 2.617188 -4.585938 2.390625 -4.296875 C 2.160156 -4.003906 2.046875 -3.550781 2.046875 -2.9375 C 2.046875 -2.3125 2.160156 -1.851562 2.390625 -1.5625 C 2.617188 -1.28125 2.945312 -1.140625 3.375 -1.140625 Z M 3.375 -1.140625 "/></g></g></g></svg>